<?xml version="1.0" encoding="utf-8"?>
<!-- Generator: Adobe Illustrator 19.0.0, SVG Export Plug-In . SVG Version: 6.00 Build 0)  -->
<!DOCTYPE svg PUBLIC "-//W3C//DTD SVG 1.1//EN" "http://www.w3.org/Graphics/SVG/1.1/DTD/svg11.dtd">
<svg version="1.1" id="Layer_1" xmlns="http://www.w3.org/2000/svg" xmlns:xlink="http://www.w3.org/1999/xlink" x="0px" y="0px"
	 viewBox="0 0 50 50" enable-background="new 0 0 50 50" xml:space="preserve">
<g id="XMLID_554_">
	<circle id="XMLID_581_" fill="#1A315C" cx="25" cy="24.8" r="19.8"/>
	<g id="XMLID_578_">
		<path id="XMLID_579_" fill="#FFFFFF" d="M30,15.1V18h-1.8c-0.6,0-1.1,0.1-1.3,0.4c-0.2,0.3-0.3,0.7-0.3,1.2v2.1h3.3L29.4,25h-2.8
			v8.5h-3.4V25h-2.8v-3.3h2.8v-2.4c0-1.4,0.4-2.5,1.2-3.2c0.8-0.8,1.8-1.1,3.1-1.1C28.5,14.9,29.4,15,30,15.1z"/>
	</g>
	<path id="XMLID_555_" fill="#FFFFFF" d="M25.5,42.6c-0.3,0-0.5-0.2-0.5-0.5c0-0.3,0.2-0.5,0.5-0.5c0.6,0,1.3-0.1,1.9-0.2
		c0.3,0,0.5,0.2,0.6,0.4c0,0.3-0.2,0.5-0.4,0.6C26.9,42.5,26.2,42.6,25.5,42.6C25.5,42.6,25.5,42.6,25.5,42.6z M22.6,42.4
		C22.5,42.4,22.5,42.4,22.6,42.4c-0.7-0.1-1.4-0.2-2.1-0.4c-0.3-0.1-0.4-0.3-0.4-0.6c0.1-0.3,0.3-0.4,0.6-0.4
		c0.6,0.2,1.2,0.3,1.9,0.4c0.3,0,0.5,0.3,0.4,0.6C23,42.2,22.8,42.4,22.6,42.4z M30.3,41.7c-0.2,0-0.4-0.1-0.5-0.3
		c-0.1-0.3,0.1-0.5,0.3-0.6c0.6-0.2,1.2-0.4,1.8-0.7c0.3-0.1,0.5,0,0.7,0.2c0.1,0.3,0,0.5-0.2,0.7c-0.6,0.3-1.2,0.5-1.9,0.7
		C30.4,41.7,30.4,41.7,30.3,41.7z M17.9,41c-0.1,0-0.1,0-0.2,0c-0.6-0.3-1.2-0.6-1.8-0.9c-0.2-0.1-0.3-0.4-0.2-0.7
		c0.1-0.2,0.4-0.3,0.7-0.2c0.5,0.3,1.1,0.6,1.7,0.9c0.3,0.1,0.4,0.4,0.2,0.7C18.2,40.9,18,41,17.9,41z M34.7,39.6
		c-0.2,0-0.3-0.1-0.4-0.2c-0.2-0.2-0.1-0.5,0.1-0.7c0.5-0.4,1-0.8,1.5-1.2c0.2-0.2,0.5-0.2,0.7,0s0.2,0.5,0,0.7
		c-0.5,0.4-1,0.9-1.6,1.2C34.9,39.5,34.8,39.6,34.7,39.6z M13.7,38.4c-0.1,0-0.2,0-0.3-0.1c-0.5-0.4-1-0.9-1.5-1.4
		c-0.2-0.2-0.2-0.5,0-0.7c0.2-0.2,0.5-0.2,0.7,0c0.4,0.5,0.9,0.9,1.4,1.3c0.2,0.2,0.2,0.5,0.1,0.7C14,38.3,13.9,38.4,13.7,38.4z
		 M38.4,36.2c-0.1,0-0.2,0-0.3-0.1c-0.2-0.2-0.2-0.5-0.1-0.7c0.4-0.5,0.8-1,1.1-1.5c0.1-0.2,0.5-0.3,0.7-0.1
		c0.2,0.1,0.3,0.5,0.1,0.7c-0.4,0.6-0.8,1.1-1.2,1.6C38.6,36.2,38.5,36.2,38.4,36.2z M10.5,34.7c-0.2,0-0.3-0.1-0.4-0.2
		c-0.4-0.6-0.7-1.2-1-1.8c-0.1-0.2,0-0.5,0.2-0.7c0.2-0.1,0.5,0,0.7,0.2c0.3,0.6,0.6,1.1,0.9,1.7c0.1,0.2,0.1,0.5-0.1,0.7
		C10.7,34.7,10.6,34.7,10.5,34.7z M40.9,32c-0.1,0-0.1,0-0.2,0c-0.3-0.1-0.4-0.4-0.3-0.7c0.2-0.6,0.5-1.2,0.6-1.8
		c0.1-0.3,0.4-0.4,0.6-0.3c0.3,0.1,0.4,0.4,0.3,0.6c-0.2,0.6-0.4,1.3-0.7,1.9C41.3,31.9,41.1,32,40.9,32z M8.5,30.2
		c-0.2,0-0.4-0.1-0.5-0.4c-0.2-0.6-0.3-1.3-0.5-2c0-0.3,0.1-0.5,0.4-0.6c0.3,0,0.5,0.1,0.6,0.4c0.1,0.6,0.3,1.3,0.4,1.9
		c0.1,0.3-0.1,0.5-0.3,0.6C8.5,30.2,8.5,30.2,8.5,30.2z M42.1,27.3C42.1,27.3,42.1,27.3,42.1,27.3c-0.3,0-0.5-0.3-0.5-0.6
		c0.1-0.6,0.1-1.3,0.1-1.9c0-0.3,0.2-0.5,0.5-0.5s0.5,0.2,0.5,0.5v0.1c0,0.7,0,1.4-0.1,2C42.6,27.1,42.4,27.3,42.1,27.3z M7.7,25.4
		c-0.3,0-0.5-0.2-0.5-0.5v0c0-0.7,0-1.3,0.1-2c0-0.3,0.3-0.5,0.6-0.4c0.3,0,0.5,0.3,0.4,0.6c-0.1,0.6-0.1,1.2-0.1,1.9
		C8.2,25.1,8,25.4,7.7,25.4z M42,22.3c-0.2,0-0.4-0.2-0.5-0.4c-0.1-0.6-0.3-1.3-0.4-1.9c-0.1-0.3,0.1-0.5,0.3-0.6
		c0.3-0.1,0.5,0.1,0.6,0.3c0.2,0.6,0.3,1.3,0.5,2C42.5,22,42.3,22.3,42,22.3C42,22.3,42,22.3,42,22.3z M8.4,20.5c0,0-0.1,0-0.1,0
		C8,20.4,7.9,20.1,8,19.9c0.2-0.6,0.4-1.3,0.7-1.9c0.1-0.3,0.4-0.4,0.7-0.3c0.3,0.1,0.4,0.4,0.3,0.7c-0.2,0.6-0.5,1.2-0.6,1.8
		C8.9,20.4,8.7,20.5,8.4,20.5z M40.5,17.7c-0.2,0-0.4-0.1-0.4-0.3c-0.3-0.6-0.6-1.1-0.9-1.7c-0.2-0.2-0.1-0.5,0.1-0.7
		c0.2-0.2,0.5-0.1,0.7,0.1c0.4,0.6,0.7,1.2,1,1.8c0.1,0.2,0,0.5-0.2,0.7C40.6,17.6,40.5,17.7,40.5,17.7z M10.5,16
		c-0.1,0-0.2,0-0.3-0.1c-0.2-0.1-0.3-0.5-0.2-0.7c0.4-0.6,0.8-1.1,1.2-1.6c0.2-0.2,0.5-0.2,0.7-0.1c0.2,0.2,0.2,0.5,0.1,0.7
		c-0.4,0.5-0.8,1-1.1,1.5C10.8,16,10.6,16,10.5,16z M37.7,13.6c-0.1,0-0.3-0.1-0.4-0.2c-0.4-0.5-0.9-0.9-1.4-1.3
		c-0.2-0.2-0.2-0.5-0.1-0.7c0.2-0.2,0.5-0.2,0.7-0.1c0.5,0.4,1,0.9,1.5,1.4c0.2,0.2,0.2,0.5,0,0.7C37.9,13.6,37.8,13.6,37.7,13.6z
		 M13.7,12.3c-0.1,0-0.3-0.1-0.4-0.2c-0.2-0.2-0.2-0.5,0-0.7c0.5-0.4,1-0.9,1.6-1.2c0.2-0.2,0.5-0.1,0.7,0.1
		c0.2,0.2,0.1,0.5-0.1,0.7c-0.5,0.4-1,0.8-1.5,1.2C13.9,12.3,13.8,12.3,13.7,12.3z M33.9,10.5c-0.1,0-0.2,0-0.3-0.1
		c-0.5-0.3-1.1-0.6-1.7-0.9c-0.3-0.1-0.4-0.4-0.2-0.7c0.1-0.3,0.4-0.4,0.7-0.2c0.6,0.3,1.2,0.6,1.8,0.9c0.2,0.1,0.3,0.4,0.2,0.7
		C34.2,10.4,34,10.5,33.9,10.5z M17.8,9.7c-0.2,0-0.4-0.1-0.5-0.3c-0.1-0.3,0-0.5,0.2-0.7c0.6-0.3,1.2-0.5,1.9-0.7
		C19.7,7.9,20,8,20.1,8.3c0.1,0.3-0.1,0.5-0.3,0.6c-0.6,0.2-1.2,0.4-1.8,0.7C17.9,9.6,17.9,9.7,17.8,9.7z M29.3,8.6c0,0-0.1,0-0.1,0
		c-0.6-0.2-1.2-0.3-1.9-0.4c-0.3,0-0.5-0.3-0.4-0.6c0-0.3,0.3-0.5,0.6-0.4c0.7,0.1,1.3,0.2,2,0.4c0.3,0.1,0.4,0.3,0.4,0.6
		C29.8,8.5,29.6,8.6,29.3,8.6z M22.5,8.3c-0.2,0-0.5-0.2-0.5-0.4c0-0.3,0.1-0.5,0.4-0.6c0.7-0.1,1.3-0.2,2-0.2
		c0.3,0,0.5,0.2,0.5,0.5c0,0.3-0.2,0.5-0.5,0.5C23.8,8.1,23.2,8.2,22.5,8.3C22.5,8.3,22.5,8.3,22.5,8.3z"/>
</g>
</svg>
